<svg xmlns="http://www.w3.org/2000/svg" viewBox="0 0 24 24" width="24" height="24" shape-rendering="crispEdges">
  <rect x="0" y="0" width="2" height="2" fill="#00e87b"/>
  <rect x="2" y="0" width="2" height="2" fill="#00e87b"/>
  <rect x="4" y="0" width="2" height="2" fill="#00e87b"/>
  <rect x="6" y="0" width="2" height="2" fill="#00e87b"/>
  <rect x="8" y="0" width="2" height="2" fill="#00e87b"/>
  <rect x="10" y="0" width="2" height="2" fill="#00e87b"/>
  <rect x="12" y="0" width="2" height="2" fill="#00e87b"/>
  <rect x="14" y="0" width="2" height="2" fill="#00e87b"/>
  <rect x="16" y="0" width="2" height="2" fill="#00e87b"/>
  <rect x="18" y="0" width="2" height="2" fill="#00e87b"/>
  <rect x="20" y="0" width="2" height="2" fill="#00e87b"/>
  <rect x="22" y="0" width="2" height="2" fill="#00e87b"/>
  <rect x="0" y="2" width="2" height="2" fill="#00e87b"/>
  <rect x="22" y="2" width="2" height="2" fill="#00e87b"/>
  <rect x="0" y="4" width="2" height="2" fill="#00e87b"/>
  <rect x="18" y="4" width="2" height="2" fill="#00e87b"/>
  <rect x="22" y="4" width="2" height="2" fill="#00e87b"/>
  <rect x="0" y="6" width="2" height="2" fill="#00e87b"/>
  <rect x="8" y="6" width="2" height="2" fill="#00e87b"/>
  <rect x="10" y="6" width="2" height="2" fill="#00e87b"/>
  <rect x="12" y="6" width="2" height="2" fill="#00e87b"/>
  <rect x="14" y="6" width="2" height="2" fill="#00e87b"/>
  <rect x="22" y="6" width="2" height="2" fill="#00e87b"/>
  <rect x="0" y="8" width="2" height="2" fill="#00e87b"/>
  <rect x="6" y="8" width="2" height="2" fill="#00e87b"/>
  <rect x="16" y="8" width="2" height="2" fill="#00e87b"/>
  <rect x="22" y="8" width="2" height="2" fill="#00e87b"/>
  <rect x="0" y="10" width="2" height="2" fill="#00e87b"/>
  <rect x="6" y="10" width="2" height="2" fill="#00e87b"/>
  <rect x="16" y="10" width="2" height="2" fill="#00e87b"/>
  <rect x="22" y="10" width="2" height="2" fill="#00e87b"/>
  <rect x="0" y="12" width="2" height="2" fill="#00e87b"/>
  <rect x="6" y="12" width="2" height="2" fill="#00e87b"/>
  <rect x="16" y="12" width="2" height="2" fill="#00e87b"/>
  <rect x="22" y="12" width="2" height="2" fill="#00e87b"/>
  <rect x="0" y="14" width="2" height="2" fill="#00e87b"/>
  <rect x="6" y="14" width="2" height="2" fill="#00e87b"/>
  <rect x="16" y="14" width="2" height="2" fill="#00e87b"/>
  <rect x="22" y="14" width="2" height="2" fill="#00e87b"/>
  <rect x="0" y="16" width="2" height="2" fill="#00e87b"/>
  <rect x="8" y="16" width="2" height="2" fill="#00e87b"/>
  <rect x="10" y="16" width="2" height="2" fill="#00e87b"/>
  <rect x="12" y="16" width="2" height="2" fill="#00e87b"/>
  <rect x="14" y="16" width="2" height="2" fill="#00e87b"/>
  <rect x="22" y="16" width="2" height="2" fill="#00e87b"/>
  <rect x="0" y="18" width="2" height="2" fill="#00e87b"/>
  <rect x="22" y="18" width="2" height="2" fill="#00e87b"/>
  <rect x="0" y="20" width="2" height="2" fill="#00e87b"/>
  <rect x="22" y="20" width="2" height="2" fill="#00e87b"/>
  <rect x="0" y="22" width="2" height="2" fill="#00e87b"/>
  <rect x="2" y="22" width="2" height="2" fill="#00e87b"/>
  <rect x="4" y="22" width="2" height="2" fill="#00e87b"/>
  <rect x="6" y="22" width="2" height="2" fill="#00e87b"/>
  <rect x="8" y="22" width="2" height="2" fill="#00e87b"/>
  <rect x="10" y="22" width="2" height="2" fill="#00e87b"/>
  <rect x="12" y="22" width="2" height="2" fill="#00e87b"/>
  <rect x="14" y="22" width="2" height="2" fill="#00e87b"/>
  <rect x="16" y="22" width="2" height="2" fill="#00e87b"/>
  <rect x="18" y="22" width="2" height="2" fill="#00e87b"/>
  <rect x="20" y="22" width="2" height="2" fill="#00e87b"/>
  <rect x="22" y="22" width="2" height="2" fill="#00e87b"/>
</svg>