<svg xmlns="http://www.w3.org/2000/svg" viewBox="0 0 168 168" width="168" height="168" shape-rendering="crispEdges">
  <rect x="56" y="0" width="14" height="14" fill="#00e87b"/>
  <rect x="70" y="0" width="14" height="14" fill="#00e87b"/>
  <rect x="84" y="0" width="14" height="14" fill="#00e87b"/>
  <rect x="98" y="0" width="14" height="14" fill="#00e87b"/>
  <rect x="42" y="14" width="14" height="14" fill="#00e87b"/>
  <rect x="112" y="14" width="14" height="14" fill="#00e87b"/>
  <rect x="28" y="28" width="14" height="14" fill="#00e87b"/>
  <rect x="56" y="28" width="14" height="14" fill="#00e87b"/>
  <rect x="98" y="28" width="14" height="14" fill="#00e87b"/>
  <rect x="126" y="28" width="14" height="14" fill="#00e87b"/>
  <rect x="28" y="42" width="14" height="14" fill="#00e87b"/>
  <rect x="126" y="42" width="14" height="14" fill="#00e87b"/>
  <rect x="28" y="56" width="14" height="14" fill="#00e87b"/>
  <rect x="56" y="56" width="14" height="14" fill="#00e87b"/>
  <rect x="70" y="56" width="14" height="14" fill="#00e87b"/>
  <rect x="84" y="56" width="14" height="14" fill="#00e87b"/>
  <rect x="98" y="56" width="14" height="14" fill="#00e87b"/>
  <rect x="126" y="56" width="14" height="14" fill="#00e87b"/>
  <rect x="42" y="70" width="14" height="14" fill="#00e87b"/>
  <rect x="112" y="70" width="14" height="14" fill="#00e87b"/>
  <rect x="56" y="84" width="14" height="14" fill="#00e87b"/>
  <rect x="70" y="84" width="14" height="14" fill="#00e87b"/>
  <rect x="84" y="84" width="14" height="14" fill="#00e87b"/>
  <rect x="98" y="84" width="14" height="14" fill="#00e87b"/>
  <rect x="70" y="98" width="14" height="14" fill="#00e87b"/>
  <rect x="84" y="98" width="14" height="14" fill="#00e87b"/>
  <rect x="28" y="112" width="14" height="14" fill="#00e87b"/>
  <rect x="42" y="112" width="14" height="14" fill="#00e87b"/>
  <rect x="56" y="112" width="14" height="14" fill="#00e87b"/>
  <rect x="70" y="112" width="14" height="14" fill="#00e87b"/>
  <rect x="84" y="112" width="14" height="14" fill="#00e87b"/>
  <rect x="98" y="112" width="14" height="14" fill="#00e87b"/>
  <rect x="112" y="112" width="14" height="14" fill="#00e87b"/>
  <rect x="126" y="112" width="14" height="14" fill="#00e87b"/>
  <rect x="14" y="126" width="14" height="14" fill="#00e87b"/>
  <rect x="70" y="126" width="14" height="14" fill="#00e87b"/>
  <rect x="84" y="126" width="14" height="14" fill="#00e87b"/>
  <rect x="140" y="126" width="14" height="14" fill="#00e87b"/>
  <rect x="14" y="140" width="14" height="14" fill="#00e87b"/>
  <rect x="70" y="140" width="14" height="14" fill="#00e87b"/>
  <rect x="84" y="140" width="14" height="14" fill="#00e87b"/>
  <rect x="140" y="140" width="14" height="14" fill="#00e87b"/>
  <rect x="28" y="154" width="14" height="14" fill="#00e87b"/>
  <rect x="42" y="154" width="14" height="14" fill="#00e87b"/>
  <rect x="112" y="154" width="14" height="14" fill="#00e87b"/>
  <rect x="126" y="154" width="14" height="14" fill="#00e87b"/>
</svg>