<svg xmlns="http://www.w3.org/2000/svg" viewBox="0 0 48 48" width="48" height="48" shape-rendering="crispEdges">
  <rect x="12" y="4" width="4" height="4" fill="#00e87b"/>
  <rect x="16" y="4" width="4" height="4" fill="#00e87b"/>
  <rect x="20" y="4" width="4" height="4" fill="#00e87b"/>
  <rect x="24" y="4" width="4" height="4" fill="#00e87b"/>
  <rect x="28" y="4" width="4" height="4" fill="#00e87b"/>
  <rect x="0" y="8" width="4" height="4" fill="#00e87b"/>
  <rect x="4" y="8" width="4" height="4" fill="#00e87b"/>
  <rect x="8" y="8" width="4" height="4" fill="#00e87b"/>
  <rect x="12" y="8" width="4" height="4" fill="#00e87b"/>
  <rect x="16" y="8" width="4" height="4" fill="#00e87b"/>
  <rect x="20" y="8" width="4" height="4" fill="#00e87b"/>
  <rect x="24" y="8" width="4" height="4" fill="#00e87b"/>
  <rect x="28" y="8" width="4" height="4" fill="#00e87b"/>
  <rect x="32" y="8" width="4" height="4" fill="#00e87b"/>
  <rect x="36" y="8" width="4" height="4" fill="#00e87b"/>
  <rect x="40" y="8" width="4" height="4" fill="#00e87b"/>
  <rect x="44" y="8" width="4" height="4" fill="#00e87b"/>
  <rect x="0" y="12" width="4" height="4" fill="#00e87b"/>
  <rect x="44" y="12" width="4" height="4" fill="#00e87b"/>
  <rect x="0" y="16" width="4" height="4" fill="#00e87b"/>
  <rect x="16" y="16" width="4" height="4" fill="#00e87b"/>
  <rect x="20" y="16" width="4" height="4" fill="#00e87b"/>
  <rect x="24" y="16" width="4" height="4" fill="#00e87b"/>
  <rect x="28" y="16" width="4" height="4" fill="#00e87b"/>
  <rect x="44" y="16" width="4" height="4" fill="#00e87b"/>
  <rect x="0" y="20" width="4" height="4" fill="#00e87b"/>
  <rect x="12" y="20" width="4" height="4" fill="#00e87b"/>
  <rect x="32" y="20" width="4" height="4" fill="#00e87b"/>
  <rect x="44" y="20" width="4" height="4" fill="#00e87b"/>
  <rect x="0" y="24" width="4" height="4" fill="#00e87b"/>
  <rect x="12" y="24" width="4" height="4" fill="#00e87b"/>
  <rect x="24" y="24" width="4" height="4" fill="#00e87b"/>
  <rect x="32" y="24" width="4" height="4" fill="#00e87b"/>
  <rect x="44" y="24" width="4" height="4" fill="#00e87b"/>
  <rect x="0" y="28" width="4" height="4" fill="#00e87b"/>
  <rect x="12" y="28" width="4" height="4" fill="#00e87b"/>
  <rect x="32" y="28" width="4" height="4" fill="#00e87b"/>
  <rect x="44" y="28" width="4" height="4" fill="#00e87b"/>
  <rect x="0" y="32" width="4" height="4" fill="#00e87b"/>
  <rect x="16" y="32" width="4" height="4" fill="#00e87b"/>
  <rect x="20" y="32" width="4" height="4" fill="#00e87b"/>
  <rect x="24" y="32" width="4" height="4" fill="#00e87b"/>
  <rect x="28" y="32" width="4" height="4" fill="#00e87b"/>
  <rect x="44" y="32" width="4" height="4" fill="#00e87b"/>
  <rect x="0" y="36" width="4" height="4" fill="#00e87b"/>
  <rect x="44" y="36" width="4" height="4" fill="#00e87b"/>
  <rect x="0" y="40" width="4" height="4" fill="#00e87b"/>
  <rect x="4" y="40" width="4" height="4" fill="#00e87b"/>
  <rect x="8" y="40" width="4" height="4" fill="#00e87b"/>
  <rect x="12" y="40" width="4" height="4" fill="#00e87b"/>
  <rect x="16" y="40" width="4" height="4" fill="#00e87b"/>
  <rect x="20" y="40" width="4" height="4" fill="#00e87b"/>
  <rect x="24" y="40" width="4" height="4" fill="#00e87b"/>
  <rect x="28" y="40" width="4" height="4" fill="#00e87b"/>
  <rect x="32" y="40" width="4" height="4" fill="#00e87b"/>
  <rect x="36" y="40" width="4" height="4" fill="#00e87b"/>
  <rect x="40" y="40" width="4" height="4" fill="#00e87b"/>
  <rect x="44" y="40" width="4" height="4" fill="#00e87b"/>
</svg>