<svg width="72" height="72" viewBox="0 0 72 72" xmlns="http://www.w3.org/2000/svg" fill="none" aria-hidden="true">
  <path d="M33.5 37.8C20.6 33.2 16.2 21.5 16 13.4C24.3 13.8 36.2 18.4 40.5 31.5C43.4 21.5 49.9 15.2 58.2 12.6C60.4 22.3 56.8 34.5 43.7 40.1C50.1 41.6 55.3 45.2 59.4 51.2C49.9 54.5 39.9 53.2 34.6 44.7C30.2 50.1 24.1 53.1 16.1 53.5C18.5 46.2 23.9 40.3 33.5 37.8Z" fill="#6E7C2A"/>
  <path d="M36.7 45.8C34.2 34.3 28.1 25.6 19.4 18.1" stroke="#F8F7F1" stroke-width="2" stroke-linecap="round" opacity=".8"/>
  <path d="M38.4 45.2C42.3 34 49.2 22.9 56.5 16.3" stroke="#F8F7F1" stroke-width="2" stroke-linecap="round" opacity=".8"/>
</svg>
