<svg width="220" height="44" viewBox="0 0 220 44" fill="none" xmlns="http://www.w3.org/2000/svg" aria-hidden="true">
  <path d="M4 22H79" stroke="#6E7C2A" stroke-width="2" stroke-linecap="round" opacity="0.45"/>
  <path d="M141 22H216" stroke="#6E7C2A" stroke-width="2" stroke-linecap="round" opacity="0.45"/>
  <path d="M102.6 23.9C90.9 19.4 88.7 8.8 88.4 4.2C93.7 4.4 105.2 7 110.6 20.4C112.5 13 117.7 7.5 125.6 4.8C127.4 12.5 124.8 23.2 113.6 27.8C118.5 29 122.5 31.8 125.7 36.2C118.2 38.9 109.9 37.9 105 30.7C101.4 35.1 96.3 37.4 89.6 37.6C91.7 31.7 95.9 26.5 102.6 23.9Z" fill="#6E7C2A"/>
  <path d="M110.7 29.2C108.9 21.5 104.7 15.2 96.9 9.4" stroke="#F8F7F1" stroke-width="1.6" stroke-linecap="round" opacity="0.72"/>
  <path d="M111.8 29C115.7 20.5 119.8 14.7 124 9.5" stroke="#F8F7F1" stroke-width="1.6" stroke-linecap="round" opacity="0.72"/>
</svg>
